<?xml version="1.0" encoding="utf-8"?>
<!-- Generator: Adobe Illustrator 19.2.1, SVG Export Plug-In . SVG Version: 6.00 Build 0)  -->
<!DOCTYPE svg PUBLIC "-//W3C//DTD SVG 1.1//EN" "http://www.w3.org/Graphics/SVG/1.1/DTD/svg11.dtd">
<svg version="1.1" id="Capa_1" xmlns="http://www.w3.org/2000/svg" xmlns:xlink="http://www.w3.org/1999/xlink" x="0px" y="0px"
	 viewBox="0 0 220 220" style="enable-background:new 0 0 220 220;" xml:space="preserve">
<path d="M110,0C49.2,0,0,49.2,0,110s49.2,110,110,110s110-49.2,110-110S170.8,0,110,0z M137.6,110c0,27.6-22.5,50.1-50.1,50.1
	s-50-22.5-50-50.1S60,59.9,87.6,59.9c11.1,0,21.7,3.6,30.5,10.4l-11.6,15.1c-5.5-4.2-12-6.4-18.9-6.4c-17.1,0-31,13.9-31,31
	s13.9,31,31,31c13.8,0,25.5-9,29.5-21.5H87.6v-19.1h50.1L137.6,110L137.6,110z M190.3,116.2H176v14.3h-12.5v-14.3h-14.3v-12.5h14.3
	V89.4H176v14.3h14.3V116.2z"/>
</svg>
